M48
; DRILL file {KiCad (5.1.2)-1} date 5/24/2019 7:58:46 PM
; FORMAT={-:-/ absolute / inch / decimal}
; #@! TF.CreationDate,2019-05-24T19:58:46-07:00
; #@! TF.GenerationSoftware,Kicad,Pcbnew,(5.1.2)-1
; #@! TF.FileFunction,Plated,1,2,PTH
FMAT,2
INCH
T1C0.0157
T2C0.0236
T3C0.0409
T4C0.0579
%
G90
G05
T1
X1.515Y-1.69
X1.52Y-2.44
X1.64Y-2.445
X1.9Y-1.875
X1.98Y-2.845
X2.04Y-1.745
X2.04Y-1.795
X2.075Y-1.655
X2.075Y-1.695
X2.085Y-1.795
X2.125Y-2.445
X2.2Y-2.605
X2.205Y-2.415
X2.215Y-2.505
X2.22Y-1.49
X2.23Y-2.715
X2.24Y-2.415
X2.255Y-2.54
X2.275Y-3.17
X2.28Y-1.79
X2.295Y-1.425
X2.305Y-1.47
X2.305Y-3.88
X2.315Y-2.605
X2.355Y-1.75
X2.365Y-2.275
X2.405Y-1.425
X2.405Y-1.46
X2.47Y-1.49
X2.5Y-2.58
X2.52Y-2.255
X2.58Y-1.635
X2.61Y-1.66
X2.61Y-1.695
X2.61Y-2.225
X2.645Y-2.315
X2.685Y-2.27
X2.71Y-2.355
X2.71Y-2.39
X2.725Y-1.97
X2.97Y-1.79
X3.08Y-3.4
X3.115Y-3.175
X3.115Y-3.895
X3.13Y-1.86
X3.205Y-2.495
X3.27Y-1.7
X3.27Y-1.975
X3.27Y-2.38
X3.305Y-1.915
X3.335Y-3.5
X3.365Y-1.88
X3.67Y-2.055
X3.73Y-1.825
X4.825Y-3.5
X5.175Y-2.055
X5.35Y-1.81
X6.615Y-2.0
X6.935Y-3.5
X8.115Y-2.0
X8.59Y-3.55
X10.12Y-3.5
X10.42Y-2.055
X10.445Y-1.815
X11.125Y-2.48
X11.44Y-1.91
X11.445Y-1.435
X11.445Y-1.75
X11.53Y-3.5
X11.705Y-2.055
X11.91Y-3.5
T3
X1.7312Y-3.2625
X1.8313Y-3.2625
X4.45Y-2.5125
X4.55Y-2.5125
X2.95Y-2.5125
X3.05Y-2.5125
X7.45Y-2.5125
X7.55Y-2.5125
X11.1062Y-4.0125
X11.2062Y-4.0125
X9.5125Y-1.7625
X9.6125Y-1.7625
X6.5125Y-1.7625
X6.6125Y-1.7625
X1.9187Y-2.5125
X2.0187Y-2.5125
X3.7Y-2.5125
X3.8Y-2.5125
X7.825Y-3.2625
X7.925Y-3.2625
X11.8937Y-1.8875
X11.8937Y-1.9875
X11.4812Y-3.2625
X11.5812Y-3.2625
X5.0125Y-1.7625
X5.1125Y-1.7625
X10.2625Y-1.7625
X10.3625Y-1.7625
X5.7625Y-1.7625
X5.8625Y-1.7625
X10.075Y-3.2625
X10.175Y-3.2625
X5.575Y-3.2625
X5.675Y-3.2625
X8.575Y-3.2625
X8.675Y-3.2625
X6.7Y-2.5125
X6.8Y-2.5125
X12.1375Y-3.2625
X12.2375Y-3.2625
X12.0437Y-4.0125
X12.1437Y-4.0125
X6.325Y-3.2625
X6.425Y-3.2625
X6.4188Y-4.0125
X6.5187Y-4.0125
X4.2625Y-1.7625
X4.3625Y-1.7625
X8.0125Y-1.7625
X8.1125Y-1.7625
X7.2625Y-1.7625
X7.3625Y-1.7625
X2.7625Y-4.0125
X2.8625Y-4.0125
X2.7625Y-1.7625
X2.8625Y-1.7625
X1.825Y-4.0125
X1.925Y-4.0125
X7.075Y-3.2625
X7.175Y-3.2625
X9.2312Y-4.0125
X9.3312Y-4.0125
X11.6687Y-2.5125
X11.7687Y-2.5125
X1.825Y-1.7625
X1.925Y-1.7625
X5.2Y-2.5125
X5.3Y-2.5125
X3.325Y-3.2625
X3.425Y-3.2625
X11.0125Y-1.7625
X11.1125Y-1.7625
X3.7Y-4.0125
X3.8Y-4.0125
X4.075Y-3.2625
X4.175Y-3.2625
X11.2Y-2.5125
X11.3Y-2.5125
X9.325Y-3.2625
X9.425Y-3.2625
X1.7312Y-4.0125
X1.8313Y-4.0125
X6.8875Y-4.0125
X6.9875Y-4.0125
X10.075Y-4.0125
X10.175Y-4.0125
X8.2Y-2.5125
X8.3Y-2.5125
X5.95Y-2.5125
X6.05Y-2.5125
X10.1687Y-4.0125
X10.2687Y-4.0125
X8.95Y-2.5125
X9.05Y-2.5125
X3.5125Y-1.7625
X3.6125Y-1.7625
X11.95Y-4.0125
X12.05Y-4.0125
X4.825Y-3.2625
X4.925Y-3.2625
X2.575Y-3.2625
X2.675Y-3.2625
X8.7625Y-1.7625
X8.8625Y-1.7625
X11.1062Y-3.2625
X11.2062Y-3.2625
X11.95Y-1.7625
X12.05Y-1.7625
X2.1062Y-3.2625
X2.2062Y-3.2625
X2.6687Y-4.0125
X2.7687Y-4.0125
X3.6062Y-4.0125
X3.7062Y-4.0125
X11.0125Y-4.0125
X11.1125Y-4.0125
X1.7312Y-2.5125
X1.8313Y-2.5125
X10.45Y-2.5125
X10.55Y-2.5125
X9.7Y-2.5125
X9.8Y-2.5125
T4
X6.7875Y-3.7125
X6.8391Y-3.655
X7.0359Y-3.6353
X7.0375Y-3.6125
X9.975Y-3.7125
X10.0266Y-3.655
X10.2234Y-3.6353
X10.225Y-3.6125
X8.1Y-2.2125
X8.1516Y-2.155
X8.3484Y-2.1353
X8.35Y-2.1125
X5.85Y-2.2125
X5.9016Y-2.155
X6.0984Y-2.1353
X6.1Y-2.1125
X10.0687Y-3.7125
X10.1203Y-3.655
X10.3172Y-3.6353
X10.3187Y-3.6125
X8.85Y-2.2125
X8.9016Y-2.155
X9.0984Y-2.1353
X9.1Y-2.1125
X3.4125Y-1.4625
X3.4641Y-1.405
X3.6609Y-1.3853
X3.6625Y-1.3625
X11.85Y-3.7125
X11.9016Y-3.655
X12.0984Y-3.6353
X12.1Y-3.6125
X4.725Y-2.9625
X4.7766Y-2.905
X4.9734Y-2.8853
X4.975Y-2.8625
X2.475Y-2.9625
X2.5266Y-2.905
X2.7234Y-2.8853
X2.725Y-2.8625
X8.6625Y-1.4625
X8.7141Y-1.405
X8.9109Y-1.3853
X8.9125Y-1.3625
X11.0062Y-2.9625
X11.0578Y-2.905
X11.2547Y-2.8853
X11.2562Y-2.8625
X11.85Y-1.4625
X11.9016Y-1.405
X12.0984Y-1.3853
X12.1Y-1.3625
X2.0063Y-2.9625
X2.0578Y-2.905
X2.2547Y-2.8853
X2.2563Y-2.8625
X2.5688Y-3.7125
X2.6203Y-3.655
X2.8172Y-3.6353
X2.8188Y-3.6125
X3.5063Y-3.7125
X3.5578Y-3.655
X3.7547Y-3.6353
X3.7563Y-3.6125
X10.9125Y-3.7125
X10.9641Y-3.655
X11.1609Y-3.6353
X11.1625Y-3.6125
X1.6312Y-2.2125
X1.6828Y-2.155
X1.8797Y-2.1353
X1.8812Y-2.1125
X10.35Y-2.2125
X10.4016Y-2.155
X10.5984Y-2.1353
X10.6Y-2.1125
X9.6Y-2.2125
X9.6516Y-2.155
X9.8484Y-2.1353
X9.85Y-2.1125
X1.6312Y-2.9625
X1.6828Y-2.905
X1.8797Y-2.8853
X1.8812Y-2.8625
X4.35Y-2.2125
X4.4016Y-2.155
X4.5984Y-2.1353
X4.6Y-2.1125
X2.85Y-2.2125
X2.9016Y-2.155
X3.0984Y-2.1353
X3.1Y-2.1125
X7.35Y-2.2125
X7.4016Y-2.155
X7.5984Y-2.1353
X7.6Y-2.1125
X11.0062Y-3.7125
X11.0578Y-3.655
X11.2547Y-3.6353
X11.2562Y-3.6125
X9.4125Y-1.4625
X9.4641Y-1.405
X9.6609Y-1.3853
X9.6625Y-1.3625
X6.4125Y-1.4625
X6.4641Y-1.405
X6.6609Y-1.3853
X6.6625Y-1.3625
X1.8187Y-2.2125
X1.8703Y-2.155
X2.0672Y-2.1353
X2.0688Y-2.1125
X3.6Y-2.2125
X3.6516Y-2.155
X3.8484Y-2.1353
X3.85Y-2.1125
X7.725Y-2.9625
X7.7766Y-2.905
X7.9734Y-2.8853
X7.975Y-2.8625
X11.9953Y-2.1147
X12.1922Y-2.095
X12.1937Y-1.7875
X12.2512Y-1.8391
X12.2709Y-2.0359
X12.2937Y-2.0375
X11.3812Y-2.9625
X11.4328Y-2.905
X11.6297Y-2.8853
X11.6312Y-2.8625
X4.9125Y-1.4625
X4.9641Y-1.405
X5.1609Y-1.3853
X5.1625Y-1.3625
X10.1625Y-1.4625
X10.2141Y-1.405
X10.4109Y-1.3853
X10.4125Y-1.3625
X5.6625Y-1.4625
X5.7141Y-1.405
X5.9109Y-1.3853
X5.9125Y-1.3625
X9.975Y-2.9625
X10.0266Y-2.905
X10.2234Y-2.8853
X10.225Y-2.8625
X5.475Y-2.9625
X5.5266Y-2.905
X5.7234Y-2.8853
X5.725Y-2.8625
X8.475Y-2.9625
X8.5266Y-2.905
X8.7234Y-2.8853
X8.725Y-2.8625
X6.6Y-2.2125
X6.6516Y-2.155
X6.8484Y-2.1353
X6.85Y-2.1125
X12.0375Y-2.9625
X12.0891Y-2.905
X12.2859Y-2.8853
X12.2875Y-2.8625
X11.9437Y-3.7125
X11.9953Y-3.655
X12.1922Y-3.6353
X12.1937Y-3.6125
X6.225Y-2.9625
X6.2766Y-2.905
X6.4734Y-2.8853
X6.475Y-2.8625
X6.3187Y-3.7125
X6.3703Y-3.655
X6.5672Y-3.6353
X6.5687Y-3.6125
X4.1625Y-1.4625
X4.2141Y-1.405
X4.4109Y-1.3853
X4.4125Y-1.3625
X7.9125Y-1.4625
X7.9641Y-1.405
X8.1609Y-1.3853
X8.1625Y-1.3625
X7.1625Y-1.4625
X7.2141Y-1.405
X7.4109Y-1.3853
X7.4125Y-1.3625
X2.6625Y-3.7125
X2.7141Y-3.655
X2.9109Y-3.6353
X2.9125Y-3.6125
X2.6625Y-1.4625
X2.7141Y-1.405
X2.9109Y-1.3853
X2.9125Y-1.3625
X1.725Y-3.7125
X1.7766Y-3.655
X1.9734Y-3.6353
X1.975Y-3.6125
X6.975Y-2.9625
X7.0266Y-2.905
X7.2234Y-2.8853
X7.225Y-2.8625
X9.1312Y-3.7125
X9.1828Y-3.655
X9.3797Y-3.6353
X9.3812Y-3.6125
X11.5687Y-2.2125
X11.6203Y-2.155
X11.8172Y-2.1353
X11.8187Y-2.1125
X1.725Y-1.4625
X1.7766Y-1.405
X1.9734Y-1.3853
X1.975Y-1.3625
X5.1Y-2.2125
X5.1516Y-2.155
X5.3484Y-2.1353
X5.35Y-2.1125
X3.225Y-2.9625
X3.2766Y-2.905
X3.4734Y-2.8853
X3.475Y-2.8625
X10.9125Y-1.4625
X10.9641Y-1.405
X11.1609Y-1.3853
X11.1625Y-1.3625
X3.6Y-3.7125
X3.6516Y-3.655
X3.8484Y-3.6353
X3.85Y-3.6125
X3.975Y-2.9625
X4.0266Y-2.905
X4.2234Y-2.8853
X4.225Y-2.8625
X11.1Y-2.2125
X11.1516Y-2.155
X11.3484Y-2.1353
X11.35Y-2.1125
X9.225Y-2.9625
X9.2766Y-2.905
X9.4734Y-2.8853
X9.475Y-2.8625
X1.6312Y-3.7125
X1.6828Y-3.655
X1.8797Y-3.6353
X1.8812Y-3.6125
T2
G00X2.1737Y-1.1531
M15
G01X2.1737Y-1.1767
M16
G05
G00X2.1737Y-1.3078
M15
G01X2.1737Y-1.3511
M16
G05
G00X2.5138Y-1.1531
M15
G01X2.5138Y-1.1767
M16
G05
G00X2.5138Y-1.3078
M15
G01X2.5138Y-1.3511
M16
G05
T0
M30
