G04 #@! TF.GenerationSoftware,KiCad,Pcbnew,(5.1.2)-1*
G04 #@! TF.CreationDate,2019-05-25T02:09:17-07:00*
G04 #@! TF.ProjectId,Voyager50,566f7961-6765-4723-9530-2e6b69636164,rev?*
G04 #@! TF.SameCoordinates,Original*
G04 #@! TF.FileFunction,Paste,Bot*
G04 #@! TF.FilePolarity,Positive*
%FSLAX46Y46*%
G04 Gerber Fmt 4.6, Leading zero omitted, Abs format (unit mm)*
G04 Created by KiCad (PCBNEW (5.1.2)-1) date 2019-05-25 02:09:17*
%MOMM*%
%LPD*%
G04 APERTURE LIST*
%ADD10R,0.900000X0.500000*%
%ADD11R,1.200000X0.900000*%
%ADD12R,1.600000X1.000000*%
%ADD13R,0.250000X0.700000*%
%ADD14R,0.700000X0.250000*%
%ADD15R,1.035000X1.035000*%
%ADD16R,1.800000X1.100000*%
%ADD17R,0.800000X0.750000*%
%ADD18R,0.750000X0.800000*%
%ADD19R,2.030000X1.140000*%
%ADD20R,0.800000X0.900000*%
%ADD21R,0.700000X1.000000*%
%ADD22R,0.700000X0.600000*%
%ADD23R,0.300000X1.450000*%
%ADD24R,0.600000X1.450000*%
%ADD25R,1.400000X1.200000*%
G04 APERTURE END LIST*
D10*
X205581250Y-101556250D03*
X205581250Y-100056250D03*
X134143750Y-101556250D03*
X134143750Y-100056250D03*
D11*
X205581250Y-96900000D03*
X205581250Y-93600000D03*
X134143750Y-96900000D03*
X134143750Y-93600000D03*
D12*
X51712500Y-85712500D03*
X51712500Y-88912500D03*
X46712500Y-85712500D03*
X46712500Y-88912500D03*
X297775000Y-47612500D03*
X297775000Y-50812500D03*
X292775000Y-47612500D03*
X292775000Y-50812500D03*
D13*
X61813500Y-58909250D03*
X62313500Y-58909250D03*
X62813500Y-58909250D03*
X63313500Y-58909250D03*
X63813500Y-58909250D03*
X64313500Y-58909250D03*
X64813500Y-58909250D03*
X65313500Y-58909250D03*
D14*
X65963500Y-59559250D03*
X65963500Y-60059250D03*
X65963500Y-60559250D03*
X65963500Y-61059250D03*
X65963500Y-61559250D03*
X65963500Y-62059250D03*
X65963500Y-62559250D03*
X65963500Y-63059250D03*
D13*
X65313500Y-63709250D03*
X64813500Y-63709250D03*
X64313500Y-63709250D03*
X63813500Y-63709250D03*
X63313500Y-63709250D03*
X62813500Y-63709250D03*
X62313500Y-63709250D03*
X61813500Y-63709250D03*
D14*
X61163500Y-63059250D03*
X61163500Y-62559250D03*
X61163500Y-62059250D03*
X61163500Y-61559250D03*
X61163500Y-61059250D03*
X61163500Y-60559250D03*
X61163500Y-60059250D03*
X61163500Y-59559250D03*
D15*
X64426000Y-62171750D03*
X62701000Y-62171750D03*
X64426000Y-60446750D03*
X62701000Y-60446750D03*
D10*
X62706250Y-40437500D03*
X62706250Y-38937500D03*
X56356250Y-40437500D03*
X56356250Y-38937500D03*
X103187500Y-101556250D03*
X103187500Y-100056250D03*
X67532250Y-55003000D03*
X67532250Y-56503000D03*
X57943750Y-69012500D03*
X57943750Y-67512500D03*
X77787500Y-48462500D03*
X77787500Y-49962500D03*
X61118750Y-44406250D03*
X61118750Y-42906250D03*
X57943750Y-44406250D03*
X57943750Y-42906250D03*
X296862500Y-101556250D03*
X296862500Y-100056250D03*
X243681250Y-101556250D03*
X243681250Y-100056250D03*
X151606250Y-101556250D03*
X151606250Y-100056250D03*
X79375000Y-101556250D03*
X79375000Y-100056250D03*
X55562500Y-101556250D03*
X55562500Y-100056250D03*
X301625000Y-82506250D03*
X301625000Y-81006250D03*
X246062500Y-82506250D03*
X246062500Y-81006250D03*
X227012500Y-82506250D03*
X227012500Y-81006250D03*
X207962500Y-82506250D03*
X207962500Y-81006250D03*
X188912500Y-82506250D03*
X188912500Y-81006250D03*
X169862500Y-82506250D03*
X169862500Y-81006250D03*
X150812500Y-82506250D03*
X150812500Y-81006250D03*
X131762500Y-82506250D03*
X131762500Y-81006250D03*
X112712500Y-82506250D03*
X112712500Y-81006250D03*
X93662500Y-82506250D03*
X93662500Y-81006250D03*
X77787500Y-82506250D03*
X77787500Y-81006250D03*
X74612500Y-82506250D03*
X74612500Y-81006250D03*
X277812500Y-63456250D03*
X277812500Y-61956250D03*
X255587500Y-63456250D03*
X255587500Y-61956250D03*
X236537500Y-63456250D03*
X236537500Y-61956250D03*
X217487500Y-63456250D03*
X217487500Y-61956250D03*
X198437500Y-63456250D03*
X198437500Y-61956250D03*
X179387500Y-63456250D03*
X179387500Y-61956250D03*
X160337500Y-63456250D03*
X160337500Y-61956250D03*
X141287500Y-63456250D03*
X141287500Y-61956250D03*
X122237500Y-63456250D03*
X122237500Y-61956250D03*
X103187500Y-63456250D03*
X103187500Y-61956250D03*
X84137500Y-63456250D03*
X84137500Y-61956250D03*
X37306250Y-63456250D03*
X37306250Y-61956250D03*
X292100000Y-44406250D03*
X292100000Y-42906250D03*
X250825000Y-44406250D03*
X250825000Y-42906250D03*
X231775000Y-44406250D03*
X231775000Y-42906250D03*
X212725000Y-44406250D03*
X212725000Y-42906250D03*
X193675000Y-44406250D03*
X193675000Y-42906250D03*
X174625000Y-44406250D03*
X174625000Y-42906250D03*
X155575000Y-44406250D03*
X155575000Y-42906250D03*
X136525000Y-44406250D03*
X136525000Y-42906250D03*
X117475000Y-44406250D03*
X117475000Y-42906250D03*
X98425000Y-44406250D03*
X98425000Y-42906250D03*
X79375000Y-44406250D03*
X79375000Y-42906250D03*
X39687500Y-44406250D03*
X39687500Y-42906250D03*
X291306250Y-101556250D03*
X291306250Y-100056250D03*
X275431250Y-82506250D03*
X275431250Y-81006250D03*
X288925000Y-44406250D03*
X288925000Y-42906250D03*
X267493750Y-101556250D03*
X267493750Y-100056250D03*
X265112500Y-82506250D03*
X265112500Y-81006250D03*
X274637500Y-63456250D03*
X274637500Y-61956250D03*
X269875000Y-44406250D03*
X269875000Y-42906250D03*
D16*
X47700000Y-70112500D03*
X53900000Y-66412500D03*
X47700000Y-66412500D03*
X53900000Y-70112500D03*
D11*
X291306250Y-96900000D03*
X291306250Y-93600000D03*
X275431250Y-77850000D03*
X275431250Y-74550000D03*
X288925000Y-39750000D03*
X288925000Y-36450000D03*
X267493750Y-96900000D03*
X267493750Y-93600000D03*
X265112500Y-77850000D03*
X265112500Y-74550000D03*
X274637500Y-58800000D03*
X274637500Y-55500000D03*
X269875000Y-39750000D03*
X269875000Y-36450000D03*
D17*
X58757250Y-58134250D03*
X57257250Y-58134250D03*
X57257250Y-59721750D03*
X58757250Y-59721750D03*
D18*
X65151000Y-56503000D03*
X65151000Y-55003000D03*
D17*
X58757250Y-62484000D03*
X57257250Y-62484000D03*
D18*
X57372250Y-54598000D03*
X57372250Y-53098000D03*
D17*
X61583000Y-50673000D03*
X60083000Y-50673000D03*
D11*
X39687500Y-36450000D03*
X39687500Y-39750000D03*
X79375000Y-39750000D03*
X79375000Y-36450000D03*
X98425000Y-36450000D03*
X98425000Y-39750000D03*
X117475000Y-36450000D03*
X117475000Y-39750000D03*
X136525000Y-36450000D03*
X136525000Y-39750000D03*
X155575000Y-39750000D03*
X155575000Y-36450000D03*
X174625000Y-36450000D03*
X174625000Y-39750000D03*
X193675000Y-36450000D03*
X193675000Y-39750000D03*
X212725000Y-39750000D03*
X212725000Y-36450000D03*
X231775000Y-39750000D03*
X231775000Y-36450000D03*
X250825000Y-39750000D03*
X250825000Y-36450000D03*
X292100000Y-36450000D03*
X292100000Y-39750000D03*
X37306250Y-58800000D03*
X37306250Y-55500000D03*
X84137500Y-58800000D03*
X84137500Y-55500000D03*
X103187500Y-55500000D03*
X103187500Y-58800000D03*
X122237500Y-55500000D03*
X122237500Y-58800000D03*
X141287500Y-58800000D03*
X141287500Y-55500000D03*
X160337500Y-58800000D03*
X160337500Y-55500000D03*
X179387500Y-58800000D03*
X179387500Y-55500000D03*
X198437500Y-55500000D03*
X198437500Y-58800000D03*
X217487500Y-58800000D03*
X217487500Y-55500000D03*
X236537500Y-58800000D03*
X236537500Y-55500000D03*
X255587500Y-58800000D03*
X255587500Y-55500000D03*
X277812500Y-58800000D03*
X277812500Y-55500000D03*
X74612500Y-74550000D03*
X74612500Y-77850000D03*
X77787500Y-74550000D03*
X77787500Y-77850000D03*
X93662500Y-77850000D03*
X93662500Y-74550000D03*
X112712500Y-74550000D03*
X112712500Y-77850000D03*
X131762500Y-77850000D03*
X131762500Y-74550000D03*
X150812500Y-74550000D03*
X150812500Y-77850000D03*
X169862500Y-77850000D03*
X169862500Y-74550000D03*
X188912500Y-74550000D03*
X188912500Y-77850000D03*
X207962500Y-74550000D03*
X207962500Y-77850000D03*
X227012500Y-74550000D03*
X227012500Y-77850000D03*
X246062500Y-74550000D03*
X246062500Y-77850000D03*
X301625000Y-74550000D03*
X301625000Y-77850000D03*
X55562500Y-96900000D03*
X55562500Y-93600000D03*
X79375000Y-93600000D03*
X79375000Y-96900000D03*
X151606250Y-93600000D03*
X151606250Y-96900000D03*
X243681250Y-93600000D03*
X243681250Y-96900000D03*
X296862500Y-96900000D03*
X296862500Y-93600000D03*
X103187500Y-96900000D03*
X103187500Y-93600000D03*
D19*
X54768750Y-43250000D03*
X54768750Y-45650000D03*
D20*
X81756250Y-50212500D03*
X82706250Y-48212500D03*
X80806250Y-48212500D03*
D21*
X60563000Y-38905750D03*
D22*
X58563000Y-38705750D03*
X60563000Y-40605750D03*
X58563000Y-40605750D03*
D23*
X59281250Y-34682500D03*
X59781250Y-34682500D03*
X60281250Y-34682500D03*
X58781250Y-34682500D03*
X60781250Y-34682500D03*
X58281250Y-34682500D03*
X61281250Y-34682500D03*
X57781250Y-34682500D03*
D24*
X57081250Y-34682500D03*
X61981250Y-34682500D03*
X56306250Y-34682500D03*
X62756250Y-34682500D03*
D25*
X59733000Y-54698000D03*
X61933000Y-54698000D03*
X61933000Y-52998000D03*
X59733000Y-52998000D03*
D12*
X45125000Y-50812500D03*
X45125000Y-47612500D03*
X50125000Y-50812500D03*
X50125000Y-47612500D03*
X295950000Y-88912500D03*
X295950000Y-85712500D03*
X300950000Y-88912500D03*
X300950000Y-85712500D03*
X87987500Y-50812500D03*
X87987500Y-47612500D03*
X92987500Y-50812500D03*
X92987500Y-47612500D03*
X264437500Y-85712500D03*
X264437500Y-88912500D03*
X259437500Y-85712500D03*
X259437500Y-88912500D03*
X130850000Y-50812500D03*
X130850000Y-47612500D03*
X135850000Y-50812500D03*
X135850000Y-47612500D03*
X223162500Y-85712500D03*
X223162500Y-88912500D03*
X218162500Y-85712500D03*
X218162500Y-88912500D03*
X178712500Y-47612500D03*
X178712500Y-50812500D03*
X173712500Y-47612500D03*
X173712500Y-50812500D03*
X178712500Y-85712500D03*
X178712500Y-88912500D03*
X173712500Y-85712500D03*
X173712500Y-88912500D03*
X216575000Y-50812500D03*
X216575000Y-47612500D03*
X221575000Y-50812500D03*
X221575000Y-47612500D03*
X134262500Y-85712500D03*
X134262500Y-88912500D03*
X129262500Y-85712500D03*
X129262500Y-88912500D03*
X264437500Y-47612500D03*
X264437500Y-50812500D03*
X259437500Y-47612500D03*
X259437500Y-50812500D03*
X92987500Y-85712500D03*
X92987500Y-88912500D03*
X87987500Y-85712500D03*
X87987500Y-88912500D03*
M02*
