M48
; DRILL file {KiCad (5.1.2)-1} date 5/24/2019 7:58:46 PM
; FORMAT={-:-/ absolute / inch / decimal}
; #@! TF.CreationDate,2019-05-24T19:58:46-07:00
; #@! TF.GenerationSoftware,Kicad,Pcbnew,(5.1.2)-1
; #@! TF.FileFunction,NonPlated,1,2,NPTH
FMAT,2
INCH
T1C0.0256
T2C0.0670
T3C0.0689
T4C0.1200
T5C0.1570
%
G90
G05
T1
X2.23Y-1.3086
X2.4575Y-1.3086
T2
X12.0938Y-1.7375
X12.0938Y-2.1375
T3
X8.6125Y-1.5625
X9.0125Y-1.5625
X10.9562Y-3.0625
X11.3562Y-3.0625
X11.8Y-1.5625
X12.2Y-1.5625
X1.9563Y-3.0625
X2.3562Y-3.0625
X2.5187Y-3.8125
X2.9187Y-3.8125
X3.4562Y-3.8125
X3.8562Y-3.8125
X10.8625Y-3.8125
X11.2625Y-3.8125
X1.5813Y-2.3125
X1.9812Y-2.3125
X10.3Y-2.3125
X10.7Y-2.3125
X9.55Y-2.3125
X9.95Y-2.3125
X1.5813Y-3.0625
X1.9812Y-3.0625
X4.3Y-2.3125
X4.7Y-2.3125
X2.8Y-2.3125
X3.2Y-2.3125
X7.3Y-2.3125
X7.7Y-2.3125
X10.9562Y-3.8125
X11.3562Y-3.8125
X9.3625Y-1.5625
X9.7625Y-1.5625
X6.3625Y-1.5625
X6.7625Y-1.5625
X1.7688Y-2.3125
X2.1687Y-2.3125
X3.55Y-2.3125
X3.95Y-2.3125
X7.675Y-3.0625
X8.075Y-3.0625
X11.3312Y-3.0625
X11.7312Y-3.0625
X4.8625Y-1.5625
X5.2625Y-1.5625
X10.1125Y-1.5625
X10.5125Y-1.5625
X5.6125Y-1.5625
X6.0125Y-1.5625
X9.925Y-3.0625
X10.325Y-3.0625
X5.425Y-3.0625
X5.825Y-3.0625
X8.425Y-3.0625
X8.825Y-3.0625
X6.55Y-2.3125
X6.95Y-2.3125
X11.9875Y-3.0625
X12.3875Y-3.0625
X11.8937Y-3.8125
X12.2937Y-3.8125
X6.175Y-3.0625
X6.575Y-3.0625
X6.2687Y-3.8125
X6.6688Y-3.8125
X4.1125Y-1.5625
X4.5125Y-1.5625
X7.8625Y-1.5625
X8.2625Y-1.5625
X7.1125Y-1.5625
X7.5125Y-1.5625
X2.6125Y-3.8125
X3.0125Y-3.8125
X2.6125Y-1.5625
X3.0125Y-1.5625
X1.675Y-3.8125
X2.075Y-3.8125
X6.925Y-3.0625
X7.325Y-3.0625
X9.0812Y-3.8125
X9.4812Y-3.8125
X11.5187Y-2.3125
X11.9187Y-2.3125
X1.675Y-1.5625
X2.075Y-1.5625
X5.05Y-2.3125
X5.45Y-2.3125
X3.175Y-3.0625
X3.575Y-3.0625
X10.8625Y-1.5625
X11.2625Y-1.5625
X3.55Y-3.8125
X3.95Y-3.8125
X3.925Y-3.0625
X4.325Y-3.0625
X11.05Y-2.3125
X11.45Y-2.3125
X9.175Y-3.0625
X9.575Y-3.0625
X1.5813Y-3.8125
X1.9812Y-3.8125
X6.7375Y-3.8125
X7.1375Y-3.8125
X9.925Y-3.8125
X10.325Y-3.8125
X8.05Y-2.3125
X8.45Y-2.3125
X5.8Y-2.3125
X6.2Y-2.3125
X10.0187Y-3.8125
X10.4187Y-3.8125
X8.8Y-2.3125
X9.2Y-2.3125
X3.3625Y-1.5625
X3.7625Y-1.5625
X11.8Y-3.8125
X12.2Y-3.8125
X4.675Y-3.0625
X5.075Y-3.0625
X2.425Y-3.0625
X2.825Y-3.0625
T4
X11.2487Y-2.0375
X12.1887Y-2.0375
X4.6875Y-4.0875
X9.1875Y-4.0875
X1.6863Y-2.7875
X2.6262Y-2.7875
X12.3688Y-1.4675
X12.3688Y-2.4075
X11.0612Y-2.7875
X12.0012Y-2.7875
X4.5003Y-4.0875
X8.4373Y-4.0875
T5
X4.6875Y-3.4875
X6.9375Y-3.8125
X9.1875Y-3.4875
X10.125Y-3.8125
X8.25Y-2.3125
X6.0Y-2.3125
X10.2188Y-3.8125
X9.0Y-2.3125
X3.5625Y-1.5625
X12.0Y-3.8125
X4.875Y-3.0625
X2.625Y-3.0625
X8.8125Y-1.5625
X11.1562Y-3.0625
X12.0Y-1.5625
X1.6863Y-3.3875
X2.1562Y-3.0625
X2.6262Y-3.3875
X2.7188Y-3.8125
X3.6562Y-3.8125
X11.0625Y-3.8125
X1.7812Y-2.3125
X10.5Y-2.3125
X9.75Y-2.3125
X1.7812Y-3.0625
X4.5Y-2.3125
X3.0Y-2.3125
X7.5Y-2.3125
X11.1562Y-3.8125
X9.5625Y-1.5625
X6.5625Y-1.5625
X1.9688Y-2.3125
X3.75Y-2.3125
X7.875Y-3.0625
X11.7687Y-1.4675
X11.7687Y-2.4075
X12.0938Y-1.9375
X11.0612Y-3.3875
X11.5312Y-3.0625
X12.0012Y-3.3875
X5.0625Y-1.5625
X10.3125Y-1.5625
X5.8125Y-1.5625
X10.125Y-3.0625
X5.625Y-3.0625
X8.625Y-3.0625
X6.75Y-2.3125
X12.1875Y-3.0625
X12.0938Y-3.8125
X6.375Y-3.0625
X4.5003Y-3.4875
X6.4688Y-3.8125
X8.4373Y-3.4875
X4.3125Y-1.5625
X8.0625Y-1.5625
X7.3125Y-1.5625
X2.8125Y-3.8125
X2.8125Y-1.5625
X1.875Y-3.8125
X7.125Y-3.0625
X9.2812Y-3.8125
X11.2487Y-2.6375
X11.7188Y-2.3125
X12.1887Y-2.6375
X1.875Y-1.5625
X5.25Y-2.3125
X3.375Y-3.0625
X11.0625Y-1.5625
X3.75Y-3.8125
X4.125Y-3.0625
X11.25Y-2.3125
X9.375Y-3.0625
X1.7812Y-3.8125
T0
M30
